# xmcd
#
# Track frame offsets: 
#        150
#        15907
#        47012
#        71745
#        107007
#        129627
#        151340
#        173247
#        197520
#        222775
#        253802
#
# Disc length: 3520 seconds
#
# Revision: 1
# Processed by: cddbd v1.5.2PL0 Copyright (c) Steve Scherf et al.
# Submitted via: ExactAudioCopy v0.99pb4
#
DISCID=920dbe0b
DTITLE=BABOS - KÕSZEGI - PEGE - TOMSITS - TAKE 4
DYEAR=1995
DGENRE=Jazz
TTITLE0=J. Kern: The Way You Look Tonight
TTITLE1=Van Heusen: Here's That Rainy Day
TTITLE2=J. Kern: Yesterdays
TTITLE3=Churchill: Someday My Prince Will Come
TTITLE4=S. Fain: Secret Love
TTITLE5=D. Ellington: Sophisticated  Lady
TTITLE6=Ch. Parker: Ornithology
TTITLE7=P. Desmond: Take Five
TTITLE8=T. Monk: Straight, No Chaser
TTITLE9=B. Kaper: Green Dolphin Street
TTITLE10=J. Lewis: Django
EXTD=
EXTT0=
EXTT1=
EXTT2=
EXTT3=
EXTT4=
EXTT5=
EXTT6=
EXTT7=
EXTT8=
EXTT9=
EXTT10=
PLAYORDER=
